<svg xmlns="http://www.w3.org/2000/svg" width="24" height="24" viewBox="0 0 24 24">
    <g fill="none" fill-rule="evenodd">
        <path fill="#FF0062" d="M8.409 9.246a1.974 1.974 0 0 1-.687 3.282l-.002-.003C3.524 14.02.52 18.03.52 22.74v.749h22.765v-.75c0-4.714-3.009-8.725-7.21-10.219l-.003.007a1.974 1.974 0 0 1-.683-3.286l.004.005a5.061 5.061 0 1 0-6.983-.002l-.001.001z"/>
        <path fill="#FF0062" d="M1.04 22.97h21.725v-.23a10.25 10.25 0 0 0-1.932-6.014 10.293 10.293 0 0 0-4.852-3.686.519.519 0 0 1-.087-.023 2.495 2.495 0 0 1-.863-4.152.519.519 0 0 1 .057-.047 4.5 4.5 0 0 0 1.356-3.237 4.547 4.547 0 0 0-4.542-4.541A4.547 4.547 0 0 0 7.361 5.58c0 1.254.5 2.422 1.408 3.288a2.502 2.502 0 0 1 .77 1.842A2.488 2.488 0 0 1 7.9 13.017a.524.524 0 0 1-.061.017 10.293 10.293 0 0 0-4.87 3.696 10.25 10.25 0 0 0-1.93 6.01v.23zm22.245 1.04H.52a.52.52 0 0 1-.52-.52v-.75c0-2.39.734-4.679 2.124-6.616a11.41 11.41 0 0 1 5.422-4.09.512.512 0 0 1 .047-.013c.535-.218.897-.744.906-1.326.006-.409-.153-.79-.45-1.073a5.56 5.56 0 0 1-1.728-4.04A5.588 5.588 0 0 1 11.902 0a5.588 5.588 0 0 1 5.115 7.817 5.562 5.562 0 0 1-1.266 1.806.523.523 0 0 1-.053.044 1.455 1.455 0 0 0 .481 2.345.52.52 0 0 1 .07.02 11.408 11.408 0 0 1 5.429 4.089 11.284 11.284 0 0 1 2.126 6.62v.749a.52.52 0 0 1-.52.52z"/>
        <path fill="#FFF" d="M11.622 7.813c-.472 0-.944-.18-1.303-.539a.52.52 0 0 1 .735-.735.805.805 0 0 0 1.136 0 .52.52 0 0 1 .736.735c-.36.36-.832.54-1.304.54"/>
    </g>
</svg>
